<svg xmlns="http://www.w3.org/2000/svg" width="720" height="440" viewBox="0 0 720 440">
<rect width="720" height="440" fill="#fbfaf7"/>
<g font-family="Georgia,serif" font-size="12" fill="#3a3630">
<text x="64" y="24" font-size="15">Observed win rate vs threat difference (level 1)</text>
<line x1="64.000" y1="388.000" x2="552.000" y2="388.000" stroke="#e2ded4"/>
<text x="56.000" y="392.000" text-anchor="end" fill="#6b6355">0</text>
<text x="64.000" y="408.000" text-anchor="middle" fill="#6b6355">-6</text>
<line x1="64.000" y1="302.000" x2="552.000" y2="302.000" stroke="#e2ded4"/>
<text x="56.000" y="306.000" text-anchor="end" fill="#6b6355">0.25</text>
<text x="186.000" y="408.000" text-anchor="middle" fill="#6b6355">-3.50</text>
<line x1="64.000" y1="216.000" x2="552.000" y2="216.000" stroke="#e2ded4"/>
<text x="56.000" y="220.000" text-anchor="end" fill="#6b6355">0.50</text>
<text x="308.000" y="408.000" text-anchor="middle" fill="#6b6355">-1</text>
<line x1="64.000" y1="130.000" x2="552.000" y2="130.000" stroke="#e2ded4"/>
<text x="56.000" y="134.000" text-anchor="end" fill="#6b6355">0.75</text>
<text x="430.000" y="408.000" text-anchor="middle" fill="#6b6355">1.50</text>
<line x1="64.000" y1="44.000" x2="552.000" y2="44.000" stroke="#e2ded4"/>
<text x="56.000" y="48.000" text-anchor="end" fill="#6b6355">1</text>
<text x="552.000" y="408.000" text-anchor="middle" fill="#6b6355">4</text>
<line x1="64.000" y1="388.000" x2="552.000" y2="388.000" stroke="#8a8172"/>
<line x1="64.000" y1="388.000" x2="64.000" y2="44.000" stroke="#8a8172"/>
<text x="308.000" y="426" text-anchor="middle" fill="#6b6355">threat(A) - threat(B)</text>
<text x="18" y="216.000" text-anchor="middle" fill="#6b6355" transform="rotate(-90 18 216.000)">A's win rate</text>
<line x1="64.000" y1="216.000" x2="552.000" y2="216.000" stroke="#b5342f" stroke-width="1" stroke-dasharray="5 4"/>
<text x="548.000" y="211.000" text-anchor="end" fill="#b5342f">even</text>
<circle cx="356.800" cy="302.000" r="3.5" fill="#4a7fd0" fill-opacity="0.75"/>
<circle cx="356.800" cy="44.000" r="3.5" fill="#4a7fd0" fill-opacity="0.75"/>
<circle cx="356.800" cy="196.889" r="3.5" fill="#4a7fd0" fill-opacity="0.75"/>
<circle cx="356.800" cy="235.111" r="3.5" fill="#4a7fd0" fill-opacity="0.75"/>
<circle cx="356.800" cy="216.000" r="3.5" fill="#4a7fd0" fill-opacity="0.75"/>
<circle cx="356.800" cy="173.000" r="3.5" fill="#4a7fd0" fill-opacity="0.75"/>
<circle cx="356.800" cy="44.000" r="3.5" fill="#4a7fd0" fill-opacity="0.75"/>
<circle cx="356.800" cy="173.000" r="3.5" fill="#4a7fd0" fill-opacity="0.75"/>
<circle cx="356.800" cy="240.571" r="3.5" fill="#4a7fd0" fill-opacity="0.75"/>
<circle cx="356.800" cy="93.143" r="3.5" fill="#4a7fd0" fill-opacity="0.75"/>
<circle cx="356.800" cy="87.000" r="3.5" fill="#4a7fd0" fill-opacity="0.75"/>
<circle cx="356.800" cy="142.286" r="3.5" fill="#4a7fd0" fill-opacity="0.75"/>
<circle cx="344.600" cy="101.333" r="3.5" fill="#4a7fd0" fill-opacity="0.75"/>
<circle cx="369.000" cy="44.000" r="3.5" fill="#4a7fd0" fill-opacity="0.75"/>
<circle cx="381.200" cy="44.000" r="3.5" fill="#4a7fd0" fill-opacity="0.75"/>
<circle cx="332.400" cy="63.111" r="3.5" fill="#4a7fd0" fill-opacity="0.75"/>
<circle cx="332.400" cy="311.556" r="3.5" fill="#4a7fd0" fill-opacity="0.75"/>
<circle cx="381.200" cy="44.000" r="3.5" fill="#4a7fd0" fill-opacity="0.75"/>
<circle cx="381.200" cy="273.333" r="3.5" fill="#4a7fd0" fill-opacity="0.75"/>
<circle cx="381.200" cy="44.000" r="3.5" fill="#4a7fd0" fill-opacity="0.75"/>
<circle cx="381.200" cy="44.000" r="3.5" fill="#4a7fd0" fill-opacity="0.75"/>
<circle cx="393.400" cy="44.000" r="3.5" fill="#4a7fd0" fill-opacity="0.75"/>
<circle cx="393.400" cy="44.000" r="3.5" fill="#4a7fd0" fill-opacity="0.75"/>
<circle cx="320.200" cy="388.000" r="3.5" fill="#4a7fd0" fill-opacity="0.75"/>
<circle cx="308.000" cy="388.000" r="3.5" fill="#4a7fd0" fill-opacity="0.75"/>
<circle cx="308.000" cy="388.000" r="3.5" fill="#4a7fd0" fill-opacity="0.75"/>
<circle cx="308.000" cy="330.667" r="3.5" fill="#4a7fd0" fill-opacity="0.75"/>
<circle cx="308.000" cy="235.111" r="3.5" fill="#4a7fd0" fill-opacity="0.75"/>
<circle cx="308.000" cy="44.000" r="3.5" fill="#4a7fd0" fill-opacity="0.75"/>
<circle cx="405.600" cy="44.000" r="3.5" fill="#4a7fd0" fill-opacity="0.75"/>
<circle cx="295.800" cy="388.000" r="3.5" fill="#4a7fd0" fill-opacity="0.75"/>
<circle cx="295.800" cy="368.889" r="3.5" fill="#4a7fd0" fill-opacity="0.75"/>
<circle cx="417.800" cy="44.000" r="3.5" fill="#4a7fd0" fill-opacity="0.75"/>
<circle cx="430.000" cy="44.000" r="3.5" fill="#4a7fd0" fill-opacity="0.75"/>
<circle cx="430.000" cy="44.000" r="3.5" fill="#4a7fd0" fill-opacity="0.75"/>
<circle cx="442.200" cy="44.000" r="3.5" fill="#4a7fd0" fill-opacity="0.75"/>
<circle cx="271.400" cy="388.000" r="3.5" fill="#4a7fd0" fill-opacity="0.75"/>
<circle cx="271.400" cy="388.000" r="3.5" fill="#4a7fd0" fill-opacity="0.75"/>
<circle cx="466.600" cy="44.000" r="3.5" fill="#4a7fd0" fill-opacity="0.75"/>
<circle cx="234.800" cy="388.000" r="3.5" fill="#4a7fd0" fill-opacity="0.75"/>
<circle cx="210.400" cy="388.000" r="3.5" fill="#4a7fd0" fill-opacity="0.75"/>
<circle cx="210.400" cy="388.000" r="3.5" fill="#4a7fd0" fill-opacity="0.75"/>
<circle cx="186.000" cy="388.000" r="3.5" fill="#4a7fd0" fill-opacity="0.75"/>
<circle cx="186.000" cy="388.000" r="3.5" fill="#4a7fd0" fill-opacity="0.75"/>
<circle cx="161.600" cy="388.000" r="3.5" fill="#4a7fd0" fill-opacity="0.75"/>
<circle cx="161.600" cy="388.000" r="3.5" fill="#4a7fd0" fill-opacity="0.75"/>
<circle cx="161.600" cy="388.000" r="3.5" fill="#4a7fd0" fill-opacity="0.75"/>
<circle cx="161.600" cy="388.000" r="3.5" fill="#4a7fd0" fill-opacity="0.75"/>
<circle cx="149.400" cy="388.000" r="3.5" fill="#4a7fd0" fill-opacity="0.75"/>
<circle cx="137.200" cy="388.000" r="3.5" fill="#4a7fd0" fill-opacity="0.75"/>
<circle cx="125.000" cy="388.000" r="3.5" fill="#4a7fd0" fill-opacity="0.75"/>
<circle cx="112.800" cy="388.000" r="3.5" fill="#4a7fd0" fill-opacity="0.75"/>
<circle cx="112.800" cy="388.000" r="3.5" fill="#4a7fd0" fill-opacity="0.75"/>
<circle cx="100.600" cy="388.000" r="3.5" fill="#4a7fd0" fill-opacity="0.75"/>
<circle cx="76.200" cy="388.000" r="3.5" fill="#4a7fd0" fill-opacity="0.75"/>
<rect x="568" y="44.000" width="12" height="3" fill="#4a7fd0"/>
<text x="586" y="52.000" fill="#3a3630">pairing</text>
</g>
</svg>
