{
  "asset": {
    "generator": "Khronos glTF Blender I/O v1.6.16",
    "version": "2.0"
  },
  "scene": 0,
  "scenes": [
    {
      "name": "Scene",
      "nodes": [
        0
      ]
    }
  ],
  "nodes": [
    {
      "mesh": 0,
      "name": "sphere_gltf"
    }
  ],
  "materials": [
    {
      "doubleSided": true,
      "name": "roof_slates_02",
      "normalTexture": {
        "index": 0
      },
      "pbrMetallicRoughness": {
        "baseColorTexture": {
          "index": 1
        },
        "metallicFactor": 0,
        "metallicRoughnessTexture": {
          "index": 2
        }
      }
    }
  ],
  "meshes": [
    {
      "name": "Sphere.001",
      "primitives": [
        {
          "attributes": {
            "POSITION": 0,
            "NORMAL": 1,
            "TEXCOORD_0": 2
          },
          "indices": 3,
          "material": 0
        }
      ]
    }
  ],
  "textures": [
    {
      "sampler": 0,
      "source": 0
    },
    {
      "sampler": 0,
      "source": 1
    },
    {
      "sampler": 0,
      "source": 2
    }
  ],
  "images": [
    {
      "mimeType": "image/jpeg",
      "name": "roof_slates_02_nor_gl_4k",
      "uri": "textures/roof_slates_02_nor_gl_1k.jpg"
    },
    {
      "mimeType": "image/jpeg",
      "name": "roof_slates_02_diff_4k",
      "uri": "textures/roof_slates_02_diff_1k.jpg"
    },
    {
      "mimeType": "image/jpeg",
      "name": "roof_slates_02_rough_4k",
      "uri": "textures/roof_slates_02_rough_1k.jpg"
    }
  ],
  "accessors": [
    {
      "bufferView": 0,
      "componentType": 5126,
      "count": 53851,
      "max": [
        1.5001988410949707,
        1.5187623500823975,
        1.5265543460845947
      ],
      "min": [
        -1.5001989603042603,
        -1.523062825202942,
        -1.5265560150146484
      ],
      "type": "VEC3"
    },
    {
      "bufferView": 1,
      "componentType": 5126,
      "count": 53851,
      "type": "VEC3"
    },
    {
      "bufferView": 2,
      "componentType": 5126,
      "count": 53851,
      "type": "VEC2"
    },
    {
      "bufferView": 3,
      "componentType": 5123,
      "count": 322170,
      "type": "SCALAR"
    }
  ],
  "bufferViews": [
    {
      "buffer": 0,
      "byteLength": 646212,
      "byteOffset": 0
    },
    {
      "buffer": 0,
      "byteLength": 646212,
      "byteOffset": 646212
    },
    {
      "buffer": 0,
      "byteLength": 430808,
      "byteOffset": 1292424
    },
    {
      "buffer": 0,
      "byteLength": 644340,
      "byteOffset": 1723232
    }
  ],
  "samplers": [
    {
      "magFilter": 9729,
      "minFilter": 9987
    }
  ],
  "buffers": [
    {
      "byteLength": 2367572,
      "uri": "roof_slates_02.bin"
    }
  ]
}